<svg width="210" height="41" viewBox="0 0 210 41" fill="none" xmlns="http://www.w3.org/2000/svg">
<path d="M0 37.6194L4.75687 40.3187L17.099 20.4613L4.88544 0.272705L0 3.05255L10.5423 20.2957L0 37.6194Z" fill="url(#paint0_linear_704_9273)"/>
<path d="M43.1548 0.621918L43.0405 30.8646L21.2703 3.68378L14.4707 14.5883L17.6562 19.7317L21.6417 13.467L43.0691 40.3456H49.2687V0.621918H43.1548Z" fill="url(#paint1_linear_704_9273)"/>
<path d="M66.4772 10.3804H58.4729V30.6831H66.4772C72.9292 30.6831 77.3861 26.2448 77.3861 20.5306V20.4724C77.3861 14.7605 72.9292 10.3804 66.4772 10.3804ZM72.665 20.5911C72.665 24.1879 70.1722 26.6521 66.4772 26.6521H62.9869V14.4114H66.4772C70.1722 14.4114 72.665 16.9338 72.665 20.5306V20.5911Z" fill="url(#paint2_linear_704_9273)"/>
<path d="M87.9451 14.8479C83.3715 14.8479 80.1741 18.5029 80.1741 22.9413V22.9995C80.1741 27.7557 83.6643 31.0346 88.3855 31.0346C91.2306 31.0346 93.3424 29.9335 94.8066 28.1339L92.2543 25.9002C91.0235 27.0305 89.9378 27.496 88.4426 27.496C86.4475 27.496 85.0405 26.4508 84.6 24.4498H95.5375C95.5661 24.0447 95.597 23.7829 95.597 23.3486V23.2905C95.597 18.8812 93.1924 14.8479 87.9451 14.8479ZM84.5429 21.6946C84.8952 19.6937 86.0975 18.3888 87.9451 18.3888C89.8211 18.3888 90.9949 19.7228 91.2592 21.6946H84.5429Z" fill="url(#paint3_linear_704_9273)"/>
<path d="M108.561 15.1389L105.011 25.551L101.492 15.1389H96.7708L102.959 30.8019H107.006L113.194 15.1389H108.561Z" fill="url(#paint4_linear_704_9273)"/>
<path d="M129.743 23.0754L120.215 10.6623H116.091V30.824H120.505V18.0058L130.352 30.824H134.159V10.6623H129.743V23.0754Z" fill="url(#paint5_linear_704_9273)"/>
<path d="M145.023 15.2125C142.38 15.2125 140.694 15.7027 138.98 16.4503L140.085 19.7919C141.509 19.2726 142.699 18.9571 144.385 18.9571C146.592 18.9571 147.725 19.9642 147.725 21.7794V22.0391C146.62 21.6653 145.489 21.4057 143.92 21.4057C140.23 21.4057 137.647 22.9612 137.647 26.3319V26.3901C137.647 29.443 140.059 31.115 142.992 31.115C145.142 31.115 146.623 30.3361 147.699 29.1566V30.8263H151.97V21.869C151.965 17.6902 149.844 15.2125 145.023 15.2125ZM147.782 25.3807C147.782 26.9653 146.387 28.0889 144.325 28.0889C142.901 28.0889 141.913 27.3973 141.913 26.2156V26.1574C141.913 24.7741 143.075 24.0266 144.963 24.0266C146.037 24.0266 147.025 24.2571 147.78 24.6018V25.3807H147.782Z" fill="url(#paint6_linear_704_9273)"/>
<path d="M160.767 11.439H156.351V15.385H154.491V19.1295H156.351V26.4462C156.351 30.0183 158.181 31.0837 160.881 31.0837C162.362 31.0837 163.438 30.7391 164.367 30.1907V26.6767C163.729 27.0214 163.003 27.2251 162.188 27.2251C161.2 27.2251 160.765 26.7349 160.765 25.7277V19.1317H164.424V15.3872H160.765V11.439H160.767Z" fill="url(#paint7_linear_704_9273)"/>
<path d="M172.3 15.385H167.883V30.8242H172.3V15.385Z" fill="url(#paint8_linear_704_9273)"/>
<path d="M172.414 9.7962H167.767V13.684H172.414V9.7962Z" fill="url(#paint9_linear_704_9273)"/>
<path d="M184.149 15.0963C179.297 15.0963 175.697 18.6976 175.697 23.1337V23.1919C175.697 27.628 179.271 31.1711 184.092 31.1711C188.944 31.1711 192.544 27.5698 192.544 23.1337V23.0755C192.544 18.6394 188.97 15.0963 184.149 15.0963ZM188.187 23.1919C188.187 25.4681 186.677 27.3975 184.149 27.3975C181.709 27.3975 180.054 25.4099 180.054 23.1337V23.0755C180.054 20.7992 181.563 18.8699 184.092 18.8699C186.532 18.8699 188.187 20.8574 188.187 23.1337V23.1919Z" fill="url(#paint10_linear_704_9273)"/>
<path d="M204.715 15.0963C202.479 15.0963 201.169 16.2781 200.153 17.574V15.385H195.736V30.8242H200.153V22.2115C200.153 20.1367 201.227 19.0713 202.912 19.0713C204.598 19.0713 205.584 20.1367 205.584 22.2115V30.8242H210V20.8283C210.002 17.2875 208.055 15.0963 204.715 15.0963Z" fill="url(#paint11_linear_704_9273)"/>
<defs>
<linearGradient id="paint0_linear_704_9273" x1="0.00078567" y1="20.2957" x2="17.0998" y2="20.2957" gradientUnits="userSpaceOnUse">
<stop stop-color="#3768C3"/>
<stop offset="1" stop-color="#399BE5"/>
</linearGradient>
<linearGradient id="paint1_linear_704_9273" x1="14.4715" y1="20.4838" x2="49.2695" y2="20.4838" gradientUnits="userSpaceOnUse">
<stop stop-color="#000"/>
<stop offset="1" stop-color="black"/>
</linearGradient>
<linearGradient id="paint2_linear_704_9273" x1="58.4717" y1="20.5334" x2="71.4599" y2="13.9842" gradientUnits="userSpaceOnUse">
<stop stop-color="#399BE5"/>
<stop offset="1" stop-color="#3768C3"/>
</linearGradient>
<linearGradient id="paint3_linear_704_9273" x1="80.173" y1="22.941" x2="95.5975" y2="22.941" gradientUnits="userSpaceOnUse">
<stop stop-color="#399BE5"/>
<stop offset="1" stop-color="#3768C3"/>
</linearGradient>
<linearGradient id="paint4_linear_704_9273" x1="96.7713" y1="22.97" x2="113.193" y2="22.97" gradientUnits="userSpaceOnUse">
<stop stop-color="#399BE5"/>
<stop offset="1" stop-color="#3768C3"/>
</linearGradient>
<linearGradient id="paint5_linear_704_9273" x1="116.09" y1="20.7427" x2="134.158" y2="20.7427" gradientUnits="userSpaceOnUse">
<stop stop-color="#000"/>
<stop offset="1" stop-color="black"/>
</linearGradient>
<linearGradient id="paint6_linear_704_9273" x1="137.643" y1="23.1623" x2="151.964" y2="23.1623" gradientUnits="userSpaceOnUse">
<stop stop-color="#000"/>
<stop offset="1" stop-color="black"/>
</linearGradient>
<linearGradient id="paint7_linear_704_9273" x1="154.492" y1="21.2613" x2="164.426" y2="21.2613" gradientUnits="userSpaceOnUse">
<stop stop-color="#000"/>
<stop offset="1" stop-color="black"/>
</linearGradient>
<linearGradient id="paint8_linear_704_9273" x1="167.766" y1="23.1048" x2="172.414" y2="23.1048" gradientUnits="userSpaceOnUse">
<stop stop-color="#000"/>
<stop offset="1" stop-color="black"/>
</linearGradient>
<linearGradient id="paint9_linear_704_9273" x1="167.766" y1="11.7416" x2="172.414" y2="11.7416" gradientUnits="userSpaceOnUse">
<stop stop-color="#000"/>
<stop offset="1" stop-color="black"/>
</linearGradient>
<linearGradient id="paint10_linear_704_9273" x1="175.696" y1="23.1336" x2="192.544" y2="23.1336" gradientUnits="userSpaceOnUse">
<stop stop-color="#000"/>
<stop offset="1" stop-color="black"/>
</linearGradient>
<linearGradient id="paint11_linear_704_9273" x1="195.739" y1="22.9608" x2="210.002" y2="22.9608" gradientUnits="userSpaceOnUse">
<stop stop-color="#000"/>
<stop offset="1" stop-color="black"/>
</linearGradient>
</defs>
</svg>
